<?xml version="1.0" encoding="utf-8"?>
<!-- Generator: Adobe Illustrator 16.0.0, SVG Export Plug-In . SVG Version: 6.00 Build 0)  -->
<!DOCTYPE svg PUBLIC "-//W3C//DTD SVG 1.1//EN" "http://www.w3.org/Graphics/SVG/1.1/DTD/svg11.dtd">
<svg version="1.1" id="Слой_1" xmlns="http://www.w3.org/2000/svg" xmlns:xlink="http://www.w3.org/1999/xlink" x="0px" y="0px"
	 width="300px" height="150px" viewBox="0 0 300 150" enable-background="new 0 0 300 150" xml:space="preserve">
<g>
	<circle fill="#FFFFFF" cx="4.001" cy="4.251" r="2.541"/>
	<circle fill="#FFFFFF" cx="14.165" cy="4.251" r="2.541"/>
	<circle fill="#FFFFFF" cx="24.329" cy="4.251" r="2.541"/>
	<circle fill="#FFFFFF" cx="34.492" cy="4.251" r="2.541"/>
	<circle fill="#FFFFFF" cx="44.656" cy="4.251" r="2.541"/>
	<circle fill="#FFFFFF" cx="54.819" cy="4.251" r="2.541"/>
	<circle fill="#FFFFFF" cx="64.983" cy="4.251" r="2.541"/>
	<circle fill="#FFFFFF" cx="75.147" cy="4.251" r="2.541"/>
	<circle fill="#FFFFFF" cx="85.31" cy="4.251" r="2.541"/>
	<circle fill="#FFFFFF" cx="95.473" cy="4.251" r="2.541"/>
	<circle fill="#FFFFFF" cx="105.637" cy="4.251" r="2.541"/>
	<circle fill="#FFFFFF" cx="115.8" cy="4.251" r="2.541"/>
	<circle fill="#FFFFFF" cx="125.964" cy="4.251" r="2.541"/>
	<circle fill="#FFFFFF" cx="136.127" cy="4.251" r="2.541"/>
	<circle fill="#FFFFFF" cx="146.292" cy="4.251" r="2.541"/>
	<circle fill="#FFFFFF" cx="156.456" cy="4.251" r="2.542"/>
	<circle fill="#FFFFFF" cx="166.619" cy="4.251" r="2.541"/>
	<circle fill="#FFFFFF" cx="176.783" cy="4.251" r="2.541"/>
	<circle fill="#FFFFFF" cx="186.946" cy="4.251" r="2.542"/>
	<circle fill="#FFFFFF" cx="197.11" cy="4.251" r="2.541"/>
	<circle fill="#FFFFFF" cx="207.272" cy="4.251" r="2.541"/>
	<circle fill="#FFFFFF" cx="217.436" cy="4.251" r="2.541"/>
	<circle fill="#FFFFFF" cx="227.599" cy="4.251" r="2.542"/>
	<circle fill="#FFFFFF" cx="237.763" cy="4.251" r="2.541"/>
	<circle fill="#FFFFFF" cx="247.927" cy="4.251" r="2.541"/>
	<circle fill="#FFFFFF" cx="4.001" cy="14.415" r="2.541"/>
	<circle fill="#FFFFFF" cx="14.165" cy="14.415" r="2.541"/>
	<circle fill="#FFFFFF" cx="24.329" cy="14.415" r="2.541"/>
	<circle fill="#FFFFFF" cx="34.492" cy="14.415" r="2.541"/>
	<circle fill="#FFFFFF" cx="44.656" cy="14.415" r="2.541"/>
	<circle fill="#FFFFFF" cx="54.819" cy="14.415" r="2.541"/>
	<circle fill="#FFFFFF" cx="64.983" cy="14.415" r="2.541"/>
	<circle fill="#FFFFFF" cx="75.147" cy="14.415" r="2.541"/>
	<circle fill="#FFFFFF" cx="85.31" cy="14.415" r="2.541"/>
	<circle fill="#FFFFFF" cx="95.473" cy="14.415" r="2.541"/>
	<circle fill="#FFFFFF" cx="105.637" cy="14.415" r="2.541"/>
	<circle fill="#FFFFFF" cx="115.8" cy="14.415" r="2.541"/>
	<circle fill="#FFFFFF" cx="125.964" cy="14.415" r="2.541"/>
	<circle fill="#FFFFFF" cx="136.127" cy="14.415" r="2.541"/>
	<circle fill="#FFFFFF" cx="146.292" cy="14.415" r="2.541"/>
	<circle fill="#FFFFFF" cx="156.456" cy="14.415" r="2.542"/>
	<circle fill="#FFFFFF" cx="166.619" cy="14.415" r="2.541"/>
	<circle fill="#FFFFFF" cx="176.783" cy="14.415" r="2.541"/>
	<circle fill="#FFFFFF" cx="186.946" cy="14.415" r="2.542"/>
	<circle fill="#FFFFFF" cx="197.11" cy="14.415" r="2.541"/>
	<circle fill="#FFFFFF" cx="207.272" cy="14.415" r="2.541"/>
	<circle fill="#FFFFFF" cx="217.436" cy="14.415" r="2.541"/>
	<circle fill="#FFFFFF" cx="227.599" cy="14.415" r="2.542"/>
	<circle fill="#FFFFFF" cx="237.763" cy="14.415" r="2.541"/>
	<circle fill="#FFFFFF" cx="247.927" cy="14.415" r="2.541"/>
	<circle fill="#FFFFFF" cx="4.001" cy="24.579" r="2.541"/>
	<circle fill="#FFFFFF" cx="14.165" cy="24.579" r="2.541"/>
	<circle fill="#FFFFFF" cx="24.329" cy="24.579" r="2.541"/>
	<circle fill="#FFFFFF" cx="34.492" cy="24.579" r="2.541"/>
	<circle fill="#FFFFFF" cx="44.656" cy="24.579" r="2.541"/>
	<circle fill="#FFFFFF" cx="54.819" cy="24.579" r="2.541"/>
	<circle fill="#FFFFFF" cx="64.983" cy="24.579" r="2.541"/>
	<circle fill="#FFFFFF" cx="75.147" cy="24.579" r="2.541"/>
	<circle fill="#FFFFFF" cx="85.31" cy="24.579" r="2.541"/>
	<circle fill="#FFFFFF" cx="95.473" cy="24.579" r="2.541"/>
	<circle fill="#FFFFFF" cx="105.637" cy="24.579" r="2.541"/>
	<circle fill="#FFFFFF" cx="115.8" cy="24.579" r="2.541"/>
	<circle fill="#FFFFFF" cx="125.964" cy="24.579" r="2.541"/>
	<circle fill="#FFFFFF" cx="136.127" cy="24.579" r="2.541"/>
	<circle fill="#FFFFFF" cx="146.292" cy="24.579" r="2.541"/>
	<circle fill="#FFFFFF" cx="156.456" cy="24.579" r="2.542"/>
	<circle fill="#FFFFFF" cx="166.619" cy="24.579" r="2.541"/>
	<circle fill="#FFFFFF" cx="176.783" cy="24.579" r="2.541"/>
	<circle fill="#FFFFFF" cx="186.946" cy="24.579" r="2.542"/>
	<circle fill="#FFFFFF" cx="197.11" cy="24.579" r="2.541"/>
	<circle fill="#FFFFFF" cx="207.272" cy="24.579" r="2.541"/>
	<circle fill="#FFFFFF" cx="217.436" cy="24.579" r="2.541"/>
	<circle fill="#FFFFFF" cx="227.599" cy="24.579" r="2.542"/>
	<circle fill="#FFFFFF" cx="237.763" cy="24.579" r="2.541"/>
	<circle fill="#FFFFFF" cx="247.927" cy="24.579" r="2.541"/>
	<circle fill="#FFFFFF" cx="4.001" cy="34.742" r="2.541"/>
	<circle fill="#FFFFFF" cx="14.165" cy="34.742" r="2.541"/>
	<circle fill="#FFFFFF" cx="24.329" cy="34.742" r="2.541"/>
	<circle fill="#FFFFFF" cx="34.492" cy="34.742" r="2.541"/>
	<circle fill="#FFFFFF" cx="44.656" cy="34.742" r="2.541"/>
	<circle fill="#FFFFFF" cx="54.819" cy="34.742" r="2.541"/>
	<circle fill="#FFFFFF" cx="64.983" cy="34.742" r="2.541"/>
	<circle fill="#FFFFFF" cx="75.147" cy="34.742" r="2.541"/>
	<circle fill="#FFFFFF" cx="85.31" cy="34.742" r="2.541"/>
	<circle fill="#FFFFFF" cx="95.473" cy="34.742" r="2.541"/>
	<circle fill="#FFFFFF" cx="105.637" cy="34.742" r="2.541"/>
	<circle fill="#FFFFFF" cx="115.8" cy="34.742" r="2.541"/>
	<circle fill="#FFFFFF" cx="125.964" cy="34.742" r="2.541"/>
	<circle fill="#FFFFFF" cx="136.127" cy="34.742" r="2.541"/>
	<circle fill="#FFFFFF" cx="146.292" cy="34.742" r="2.541"/>
	<circle fill="#FFFFFF" cx="156.456" cy="34.742" r="2.542"/>
	<circle fill="#FFFFFF" cx="166.619" cy="34.742" r="2.541"/>
	<circle fill="#FFFFFF" cx="176.783" cy="34.742" r="2.541"/>
	<circle fill="#FFFFFF" cx="186.946" cy="34.742" r="2.542"/>
	<circle fill="#FFFFFF" cx="197.11" cy="34.742" r="2.541"/>
	<circle fill="#FFFFFF" cx="207.272" cy="34.742" r="2.541"/>
	<circle fill="#FFFFFF" cx="217.436" cy="34.742" r="2.541"/>
	<circle fill="#FFFFFF" cx="227.599" cy="34.742" r="2.542"/>
	<circle fill="#FFFFFF" cx="237.763" cy="34.742" r="2.541"/>
	<circle fill="#FFFFFF" cx="247.927" cy="34.742" r="2.541"/>
	<circle fill="#FFFFFF" cx="4.001" cy="44.905" r="2.541"/>
	<circle fill="#FFFFFF" cx="14.165" cy="44.905" r="2.541"/>
	<circle fill="#FFFFFF" cx="24.329" cy="44.905" r="2.541"/>
	<circle fill="#FFFFFF" cx="34.492" cy="44.905" r="2.541"/>
	<circle fill="#FFFFFF" cx="44.656" cy="44.905" r="2.541"/>
	<circle fill="#FFFFFF" cx="54.819" cy="44.905" r="2.541"/>
	<circle fill="#FFFFFF" cx="64.983" cy="44.905" r="2.541"/>
	<circle fill="#FFFFFF" cx="75.147" cy="44.905" r="2.541"/>
	<circle fill="#FFFFFF" cx="85.31" cy="44.905" r="2.541"/>
	<circle fill="#FFFFFF" cx="95.473" cy="44.905" r="2.541"/>
	<circle fill="#FFFFFF" cx="105.637" cy="44.905" r="2.541"/>
	<circle fill="#FFFFFF" cx="115.8" cy="44.905" r="2.541"/>
	<circle fill="#FFFFFF" cx="125.964" cy="44.905" r="2.541"/>
	<circle fill="#FFFFFF" cx="136.127" cy="44.905" r="2.541"/>
	<circle fill="#FFFFFF" cx="146.292" cy="44.905" r="2.541"/>
	<circle fill="#FFFFFF" cx="156.456" cy="44.905" r="2.542"/>
	<circle fill="#FFFFFF" cx="166.619" cy="44.905" r="2.541"/>
	<circle fill="#FFFFFF" cx="176.783" cy="44.905" r="2.541"/>
	<circle fill="#FFFFFF" cx="186.946" cy="44.905" r="2.542"/>
	<circle fill="#FFFFFF" cx="197.11" cy="44.905" r="2.541"/>
	<circle fill="#FFFFFF" cx="207.272" cy="44.905" r="2.541"/>
	<circle fill="#FFFFFF" cx="217.436" cy="44.905" r="2.541"/>
	<circle fill="#FFFFFF" cx="227.599" cy="44.905" r="2.542"/>
	<circle fill="#FFFFFF" cx="237.763" cy="44.905" r="2.541"/>
	<circle fill="#FFFFFF" cx="247.927" cy="44.905" r="2.541"/>
	<circle fill="#FFFFFF" cx="4.001" cy="55.07" r="2.541"/>
	<circle fill="#FFFFFF" cx="14.165" cy="55.07" r="2.541"/>
	<circle fill="#FFFFFF" cx="24.329" cy="55.07" r="2.541"/>
	<circle fill="#FFFFFF" cx="34.492" cy="55.07" r="2.541"/>
	<circle fill="#FFFFFF" cx="44.656" cy="55.07" r="2.541"/>
	<circle fill="#FFFFFF" cx="54.819" cy="55.07" r="2.541"/>
	<circle fill="#FFFFFF" cx="64.983" cy="55.07" r="2.541"/>
	<circle fill="#FFFFFF" cx="75.147" cy="55.07" r="2.541"/>
	<circle fill="#FFFFFF" cx="85.31" cy="55.07" r="2.541"/>
	<circle fill="#FFFFFF" cx="95.473" cy="55.07" r="2.541"/>
	<circle fill="#FFFFFF" cx="105.637" cy="55.07" r="2.541"/>
	<circle fill="#FFFFFF" cx="115.8" cy="55.07" r="2.541"/>
	<circle fill="#FFFFFF" cx="125.964" cy="55.07" r="2.541"/>
	<circle fill="#FFFFFF" cx="136.127" cy="55.07" r="2.541"/>
	<circle fill="#FFFFFF" cx="146.292" cy="55.07" r="2.541"/>
	<circle fill="#FFFFFF" cx="156.456" cy="55.07" r="2.542"/>
	<circle fill="#FFFFFF" cx="166.619" cy="55.07" r="2.541"/>
	<circle fill="#FFFFFF" cx="176.783" cy="55.07" r="2.541"/>
	<circle fill="#FFFFFF" cx="186.946" cy="55.07" r="2.542"/>
	<circle fill="#FFFFFF" cx="197.11" cy="55.07" r="2.541"/>
	<circle fill="#FFFFFF" cx="207.272" cy="55.07" r="2.541"/>
	<circle fill="#FFFFFF" cx="217.436" cy="55.07" r="2.541"/>
	<circle fill="#FFFFFF" cx="227.599" cy="55.07" r="2.542"/>
	<circle fill="#FFFFFF" cx="237.763" cy="55.07" r="2.541"/>
	<circle fill="#FFFFFF" cx="247.927" cy="55.07" r="2.541"/>
	<circle fill="#FFFFFF" cx="4.001" cy="65.233" r="2.541"/>
	<circle fill="#FFFFFF" cx="14.165" cy="65.233" r="2.541"/>
	<circle fill="#FFFFFF" cx="24.329" cy="65.233" r="2.541"/>
	<circle fill="#FFFFFF" cx="34.492" cy="65.233" r="2.541"/>
	<circle fill="#FFFFFF" cx="44.656" cy="65.233" r="2.541"/>
	<circle fill="#FFFFFF" cx="54.819" cy="65.233" r="2.541"/>
	<circle fill="#FFFFFF" cx="64.983" cy="65.233" r="2.541"/>
	<circle fill="#FFFFFF" cx="75.147" cy="65.233" r="2.541"/>
	<circle fill="#FFFFFF" cx="85.31" cy="65.233" r="2.541"/>
	<circle fill="#FFFFFF" cx="95.473" cy="65.233" r="2.541"/>
	<circle fill="#FFFFFF" cx="105.637" cy="65.233" r="2.541"/>
	<circle fill="#FFFFFF" cx="115.8" cy="65.233" r="2.541"/>
	<circle fill="#FFFFFF" cx="125.964" cy="65.233" r="2.541"/>
	<circle fill="#FFFFFF" cx="136.127" cy="65.233" r="2.541"/>
	<circle fill="#FFFFFF" cx="146.292" cy="65.233" r="2.541"/>
	<circle fill="#FFFFFF" cx="156.456" cy="65.233" r="2.542"/>
	<circle fill="#FFFFFF" cx="166.619" cy="65.233" r="2.541"/>
	<circle fill="#FFFFFF" cx="176.783" cy="65.233" r="2.541"/>
	<circle fill="#FFFFFF" cx="186.946" cy="65.233" r="2.542"/>
	<circle fill="#FFFFFF" cx="197.11" cy="65.233" r="2.541"/>
	<circle fill="#FFFFFF" cx="207.272" cy="65.233" r="2.541"/>
	<circle fill="#FFFFFF" cx="217.436" cy="65.233" r="2.541"/>
	<circle fill="#FFFFFF" cx="227.599" cy="65.233" r="2.542"/>
	<circle fill="#FFFFFF" cx="237.763" cy="65.233" r="2.541"/>
	<circle fill="#FFFFFF" cx="247.927" cy="65.233" r="2.541"/>
	<circle fill="#FFFFFF" cx="4.001" cy="75.396" r="2.541"/>
	<circle fill="#FFFFFF" cx="14.165" cy="75.396" r="2.541"/>
	<circle fill="#FFFFFF" cx="24.329" cy="75.396" r="2.541"/>
	<circle fill="#FFFFFF" cx="34.492" cy="75.396" r="2.541"/>
	<circle fill="#FFFFFF" cx="44.656" cy="75.396" r="2.541"/>
	<circle fill="#FFFFFF" cx="54.819" cy="75.396" r="2.541"/>
	<circle fill="#FFFFFF" cx="64.983" cy="75.396" r="2.541"/>
	<circle fill="#FFFFFF" cx="75.147" cy="75.396" r="2.541"/>
	<circle fill="#FFFFFF" cx="85.31" cy="75.396" r="2.541"/>
	<circle fill="#FFFFFF" cx="95.473" cy="75.396" r="2.541"/>
	<circle fill="#FFFFFF" cx="105.637" cy="75.396" r="2.541"/>
	<circle fill="#FFFFFF" cx="115.8" cy="75.396" r="2.541"/>
	<circle fill="#FFFFFF" cx="125.964" cy="75.396" r="2.541"/>
	<circle fill="#FFFFFF" cx="136.127" cy="75.396" r="2.541"/>
	<circle fill="#FFFFFF" cx="146.292" cy="75.396" r="2.541"/>
	<circle fill="#FFFFFF" cx="156.456" cy="75.396" r="2.542"/>
	<circle fill="#FFFFFF" cx="166.619" cy="75.396" r="2.541"/>
	<circle fill="#FFFFFF" cx="176.783" cy="75.396" r="2.541"/>
	<circle fill="#FFFFFF" cx="186.946" cy="75.396" r="2.542"/>
	<circle fill="#FFFFFF" cx="197.11" cy="75.396" r="2.541"/>
	<circle fill="#FFFFFF" cx="207.272" cy="75.396" r="2.541"/>
	<circle fill="#FFFFFF" cx="217.436" cy="75.396" r="2.541"/>
	<circle fill="#FFFFFF" cx="227.599" cy="75.396" r="2.542"/>
	<circle fill="#FFFFFF" cx="237.763" cy="75.396" r="2.541"/>
	<circle fill="#FFFFFF" cx="247.927" cy="75.396" r="2.541"/>
	<circle fill="#FFFFFF" cx="4.001" cy="85.562" r="2.541"/>
	<circle fill="#FFFFFF" cx="14.165" cy="85.562" r="2.541"/>
	<circle fill="#FFFFFF" cx="24.329" cy="85.562" r="2.541"/>
	<circle fill="#FFFFFF" cx="34.492" cy="85.562" r="2.541"/>
	<circle fill="#FFFFFF" cx="44.656" cy="85.562" r="2.541"/>
	<circle fill="#FFFFFF" cx="54.819" cy="85.562" r="2.541"/>
	<circle fill="#FFFFFF" cx="64.983" cy="85.562" r="2.541"/>
	<circle fill="#FFFFFF" cx="75.147" cy="85.562" r="2.541"/>
	<circle fill="#FFFFFF" cx="85.31" cy="85.562" r="2.541"/>
	<circle fill="#FFFFFF" cx="95.473" cy="85.562" r="2.541"/>
	<circle fill="#FFFFFF" cx="105.637" cy="85.562" r="2.541"/>
	<circle fill="#FFFFFF" cx="115.8" cy="85.562" r="2.541"/>
	<circle fill="#FFFFFF" cx="125.964" cy="85.562" r="2.541"/>
	<circle fill="#FFFFFF" cx="136.127" cy="85.562" r="2.541"/>
	<circle fill="#FFFFFF" cx="146.292" cy="85.562" r="2.541"/>
	<circle fill="#FFFFFF" cx="156.456" cy="85.562" r="2.542"/>
	<circle fill="#FFFFFF" cx="166.619" cy="85.562" r="2.541"/>
	<circle fill="#FFFFFF" cx="176.783" cy="85.562" r="2.541"/>
	<circle fill="#FFFFFF" cx="186.946" cy="85.562" r="2.542"/>
	<circle fill="#FFFFFF" cx="197.11" cy="85.562" r="2.541"/>
	<circle fill="#FFFFFF" cx="207.272" cy="85.562" r="2.541"/>
	<circle fill="#FFFFFF" cx="217.436" cy="85.562" r="2.541"/>
	<circle fill="#FFFFFF" cx="227.599" cy="85.562" r="2.542"/>
	<circle fill="#FFFFFF" cx="237.763" cy="85.562" r="2.541"/>
	<circle fill="#FFFFFF" cx="247.927" cy="85.562" r="2.541"/>
	<circle fill="#FFFFFF" cx="4.001" cy="95.724" r="2.541"/>
	<circle fill="#FFFFFF" cx="14.165" cy="95.724" r="2.541"/>
	<circle fill="#FFFFFF" cx="24.329" cy="95.724" r="2.541"/>
	<circle fill="#FFFFFF" cx="34.492" cy="95.724" r="2.541"/>
	<circle fill="#FFFFFF" cx="44.656" cy="95.724" r="2.541"/>
	<circle fill="#FFFFFF" cx="54.819" cy="95.724" r="2.541"/>
	<circle fill="#FFFFFF" cx="64.983" cy="95.724" r="2.541"/>
	<circle fill="#FFFFFF" cx="75.147" cy="95.724" r="2.541"/>
	<circle fill="#FFFFFF" cx="85.31" cy="95.724" r="2.541"/>
	<circle fill="#FFFFFF" cx="95.473" cy="95.724" r="2.541"/>
	<circle fill="#FFFFFF" cx="105.637" cy="95.724" r="2.541"/>
	<circle fill="#FFFFFF" cx="115.8" cy="95.724" r="2.541"/>
	<circle fill="#FFFFFF" cx="125.964" cy="95.724" r="2.541"/>
	<circle fill="#FFFFFF" cx="136.127" cy="95.724" r="2.541"/>
	<circle fill="#FFFFFF" cx="146.292" cy="95.724" r="2.541"/>
	<circle fill="#FFFFFF" cx="156.456" cy="95.724" r="2.542"/>
	<circle fill="#FFFFFF" cx="166.619" cy="95.724" r="2.541"/>
	<circle fill="#FFFFFF" cx="176.783" cy="95.724" r="2.541"/>
	<circle fill="#FFFFFF" cx="186.946" cy="95.724" r="2.542"/>
	<circle fill="#FFFFFF" cx="197.11" cy="95.724" r="2.541"/>
	<circle fill="#FFFFFF" cx="207.272" cy="95.724" r="2.541"/>
	<circle fill="#FFFFFF" cx="217.436" cy="95.724" r="2.541"/>
	<circle fill="#FFFFFF" cx="227.599" cy="95.724" r="2.542"/>
	<circle fill="#FFFFFF" cx="237.763" cy="95.724" r="2.541"/>
	<circle fill="#FFFFFF" cx="247.927" cy="95.724" r="2.541"/>
</g>
</svg>
