<?xml version="1.0" encoding="utf-8"?>
<!-- Generator: Adobe Illustrator 16.0.0, SVG Export Plug-In . SVG Version: 6.00 Build 0)  -->
<!DOCTYPE svg PUBLIC "-//W3C//DTD SVG 1.1//EN" "http://www.w3.org/Graphics/SVG/1.1/DTD/svg11.dtd">
<svg version="1.1" id="Слой_1" xmlns="http://www.w3.org/2000/svg" xmlns:xlink="http://www.w3.org/1999/xlink" x="0px" y="0px"
	 width="300px" height="100px" viewBox="0 0 300 100" enable-background="new 0 0 300 100" xml:space="preserve">
<g>
	<circle fill="#FFFFFF" cx="145.68" cy="4.045" r="1.64"/>
	<circle fill="#FFFFFF" cx="139.119" cy="10.606" r="1.64"/>
	<circle fill="#FFFFFF" cx="145.68" cy="10.606" r="1.64"/>
	<circle fill="#FFFFFF" cx="152.241" cy="10.606" r="1.641"/>
	<circle fill="#FFFFFF" cx="132.559" cy="17.167" r="1.64"/>
	<circle fill="#FFFFFF" cx="139.119" cy="17.167" r="1.64"/>
	<circle fill="#FFFFFF" cx="145.68" cy="17.167" r="1.64"/>
	<circle fill="#FFFFFF" cx="152.241" cy="17.167" r="1.641"/>
	<circle fill="#FFFFFF" cx="158.802" cy="17.167" r="1.641"/>
	<circle fill="#FFFFFF" cx="125.997" cy="23.727" r="1.641"/>
	<circle fill="#FFFFFF" cx="132.559" cy="23.727" r="1.64"/>
	<circle fill="#FFFFFF" cx="139.119" cy="23.727" r="1.64"/>
	<circle fill="#FFFFFF" cx="145.68" cy="23.727" r="1.64"/>
	<circle fill="#FFFFFF" cx="152.241" cy="23.727" r="1.641"/>
	<circle fill="#FFFFFF" cx="158.802" cy="23.727" r="1.641"/>
	<circle fill="#FFFFFF" cx="165.363" cy="23.727" r="1.64"/>
	<circle fill="#FFFFFF" cx="119.437" cy="30.288" r="1.641"/>
	<circle fill="#FFFFFF" cx="125.997" cy="30.288" r="1.641"/>
	<circle fill="#FFFFFF" cx="132.559" cy="30.288" r="1.64"/>
	<circle fill="#FFFFFF" cx="139.119" cy="30.288" r="1.64"/>
	<circle fill="#FFFFFF" cx="145.68" cy="30.288" r="1.64"/>
	<circle fill="#FFFFFF" cx="152.241" cy="30.288" r="1.641"/>
	<circle fill="#FFFFFF" cx="158.802" cy="30.288" r="1.641"/>
	<circle fill="#FFFFFF" cx="165.363" cy="30.288" r="1.64"/>
	<circle fill="#FFFFFF" cx="171.924" cy="30.288" r="1.64"/>
	<circle fill="#FFFFFF" cx="112.876" cy="36.85" r="1.641"/>
	<circle fill="#FFFFFF" cx="119.437" cy="36.85" r="1.641"/>
	<circle fill="#FFFFFF" cx="125.997" cy="36.85" r="1.641"/>
	<circle fill="#FFFFFF" cx="132.559" cy="36.85" r="1.64"/>
	<circle fill="#FFFFFF" cx="139.119" cy="36.85" r="1.64"/>
	<circle fill="#FFFFFF" cx="145.68" cy="36.85" r="1.64"/>
	<circle fill="#FFFFFF" cx="152.241" cy="36.85" r="1.641"/>
	<circle fill="#FFFFFF" cx="158.802" cy="36.85" r="1.641"/>
	<circle fill="#FFFFFF" cx="165.363" cy="36.85" r="1.64"/>
	<circle fill="#FFFFFF" cx="171.924" cy="36.85" r="1.64"/>
	<circle fill="#FFFFFF" cx="178.485" cy="36.85" r="1.641"/>
	<circle fill="#FFFFFF" cx="106.314" cy="43.411" r="1.64"/>
	<circle fill="#FFFFFF" cx="112.876" cy="43.411" r="1.641"/>
	<circle fill="#FFFFFF" cx="119.437" cy="43.411" r="1.641"/>
	<circle fill="#FFFFFF" cx="125.997" cy="43.411" r="1.641"/>
	<circle fill="#FFFFFF" cx="132.559" cy="43.411" r="1.64"/>
	<circle fill="#FFFFFF" cx="139.119" cy="43.411" r="1.64"/>
	<circle fill="#FFFFFF" cx="145.68" cy="43.411" r="1.64"/>
	<circle fill="#FFFFFF" cx="158.802" cy="43.411" r="1.641"/>
	<circle fill="#FFFFFF" cx="165.363" cy="43.411" r="1.64"/>
	<circle fill="#FFFFFF" cx="171.924" cy="43.411" r="1.64"/>
	<circle fill="#FFFFFF" cx="178.485" cy="43.411" r="1.641"/>
	<circle fill="#FFFFFF" cx="185.046" cy="43.411" r="1.64"/>
	<circle fill="#FFFFFF" cx="99.754" cy="49.971" r="1.64"/>
	<circle fill="#FFFFFF" cx="106.314" cy="49.971" r="1.64"/>
	<circle fill="#FFFFFF" cx="112.876" cy="49.971" r="1.641"/>
	<circle fill="#FFFFFF" cx="119.437" cy="49.971" r="1.641"/>
	<circle fill="#FFFFFF" cx="125.997" cy="49.971" r="1.641"/>
	<circle fill="#FFFFFF" cx="132.559" cy="49.971" r="1.64"/>
	<circle fill="#FFFFFF" cx="139.119" cy="49.971" r="1.64"/>
	<circle fill="#FFFFFF" cx="145.68" cy="49.971" r="1.64"/>
	<circle fill="#FFFFFF" cx="152.241" cy="49.971" r="1.641"/>
	<circle fill="#FFFFFF" cx="158.802" cy="49.971" r="1.641"/>
	<circle fill="#FFFFFF" cx="165.363" cy="49.971" r="1.64"/>
	<circle fill="#FFFFFF" cx="171.924" cy="49.971" r="1.64"/>
	<circle fill="#FFFFFF" cx="178.485" cy="49.971" r="1.641"/>
	<circle fill="#FFFFFF" cx="185.046" cy="49.971" r="1.64"/>
	<circle fill="#FFFFFF" cx="191.607" cy="49.971" r="1.641"/>
	<circle fill="#FFFFFF" cx="93.193" cy="56.532" r="1.64"/>
	<circle fill="#FFFFFF" cx="99.754" cy="56.532" r="1.64"/>
	<circle fill="#FFFFFF" cx="106.314" cy="56.532" r="1.64"/>
	<circle fill="#FFFFFF" cx="112.876" cy="56.532" r="1.641"/>
	<circle fill="#FFFFFF" cx="119.437" cy="56.532" r="1.641"/>
	<circle fill="#FFFFFF" cx="125.997" cy="56.532" r="1.641"/>
	<circle fill="#FFFFFF" cx="132.559" cy="56.532" r="1.64"/>
	<circle fill="#FFFFFF" cx="139.119" cy="56.532" r="1.64"/>
	<circle fill="#FFFFFF" cx="145.68" cy="56.532" r="1.64"/>
	<circle fill="#FFFFFF" cx="152.241" cy="56.532" r="1.641"/>
	<circle fill="#FFFFFF" cx="158.802" cy="56.532" r="1.641"/>
	<circle fill="#FFFFFF" cx="165.363" cy="56.532" r="1.64"/>
	<circle fill="#FFFFFF" cx="171.924" cy="56.532" r="1.64"/>
	<circle fill="#FFFFFF" cx="178.485" cy="56.532" r="1.641"/>
	<circle fill="#FFFFFF" cx="185.046" cy="56.532" r="1.64"/>
	<circle fill="#FFFFFF" cx="191.607" cy="56.532" r="1.641"/>
	<circle fill="#FFFFFF" cx="198.168" cy="56.532" r="1.641"/>
	<circle fill="#FFFFFF" cx="86.632" cy="63.093" r="1.641"/>
	<circle fill="#FFFFFF" cx="93.193" cy="63.093" r="1.64"/>
	<circle fill="#FFFFFF" cx="99.754" cy="63.093" r="1.64"/>
	<circle fill="#FFFFFF" cx="106.314" cy="63.093" r="1.64"/>
	<circle fill="#FFFFFF" cx="112.876" cy="63.093" r="1.641"/>
	<circle fill="#FFFFFF" cx="119.437" cy="63.093" r="1.641"/>
	<circle fill="#FFFFFF" cx="125.997" cy="63.093" r="1.641"/>
	<circle fill="#FFFFFF" cx="132.559" cy="63.093" r="1.64"/>
	<circle fill="#FFFFFF" cx="139.119" cy="63.093" r="1.64"/>
	<circle fill="#FFFFFF" cx="145.68" cy="63.093" r="1.64"/>
	<circle fill="#FFFFFF" cx="152.241" cy="63.093" r="1.641"/>
	<circle fill="#FFFFFF" cx="158.802" cy="63.093" r="1.641"/>
	<circle fill="#FFFFFF" cx="165.363" cy="63.093" r="1.64"/>
	<circle fill="#FFFFFF" cx="171.924" cy="63.093" r="1.64"/>
	<circle fill="#FFFFFF" cx="178.485" cy="63.093" r="1.641"/>
	<circle fill="#FFFFFF" cx="185.046" cy="63.093" r="1.64"/>
	<circle fill="#FFFFFF" cx="191.607" cy="63.093" r="1.641"/>
	<circle fill="#FFFFFF" cx="198.168" cy="63.093" r="1.641"/>
	<circle fill="#FFFFFF" cx="204.729" cy="63.093" r="1.641"/>
	<path fill="#FFFFFF" d="M81.711,69.655c0,0.904-0.734,1.639-1.641,1.639c-0.906,0-1.64-0.734-1.64-1.639
		c0-0.908,0.734-1.641,1.64-1.641C80.977,68.015,81.711,68.747,81.711,69.655z"/>
	<path fill="#FFFFFF" d="M88.272,69.655c0,0.904-0.735,1.639-1.641,1.639c-0.906,0-1.641-0.734-1.641-1.639
		c0-0.908,0.734-1.641,1.641-1.641C87.538,68.015,88.272,68.747,88.272,69.655z"/>
	<path fill="#FFFFFF" d="M94.833,69.655c0,0.904-0.735,1.639-1.641,1.639c-0.906,0-1.639-0.734-1.639-1.639
		c0-0.908,0.733-1.641,1.639-1.641C94.098,68.015,94.833,68.747,94.833,69.655z"/>
	<path fill="#FFFFFF" d="M101.394,69.655c0,0.904-0.734,1.639-1.639,1.639c-0.906,0-1.64-0.734-1.64-1.639
		c0-0.908,0.734-1.641,1.64-1.641C100.659,68.015,101.394,68.747,101.394,69.655z"/>
	<path fill="#FFFFFF" d="M107.954,69.655c0,0.904-0.733,1.639-1.639,1.639c-0.906,0-1.641-0.734-1.641-1.639
		c0-0.908,0.734-1.641,1.641-1.641C107.221,68.015,107.954,68.747,107.954,69.655z"/>
	<path fill="#FFFFFF" d="M114.517,69.655c0,0.904-0.735,1.639-1.641,1.639c-0.906,0-1.641-0.734-1.641-1.639
		c0-0.908,0.734-1.641,1.641-1.641C113.782,68.015,114.517,68.747,114.517,69.655z"/>
	<path fill="#FFFFFF" d="M121.077,69.655c0,0.904-0.734,1.639-1.641,1.639c-0.906,0-1.641-0.734-1.641-1.639
		c0-0.908,0.735-1.641,1.641-1.641C120.343,68.015,121.077,68.747,121.077,69.655z"/>
	<path fill="#FFFFFF" d="M127.638,69.655c0,0.904-0.734,1.639-1.641,1.639c-0.906,0-1.641-0.734-1.641-1.639
		c0-0.908,0.735-1.641,1.641-1.641C126.903,68.015,127.638,68.747,127.638,69.655z"/>
	<path fill="#FFFFFF" d="M134.198,69.655c0,0.904-0.734,1.639-1.64,1.639c-0.906,0-1.639-0.734-1.639-1.639
		c0-0.908,0.733-1.641,1.639-1.641C133.464,68.015,134.198,68.747,134.198,69.655z"/>
	<path fill="#FFFFFF" d="M140.759,69.655c0,0.904-0.734,1.639-1.639,1.639c-0.906,0-1.641-0.734-1.641-1.639
		c0-0.908,0.734-1.641,1.641-1.641C140.024,68.015,140.759,68.747,140.759,69.655z"/>
	<path fill="#FFFFFF" d="M147.319,69.655c0,0.904-0.732,1.639-1.639,1.639s-1.641-0.734-1.641-1.639
		c0-0.908,0.734-1.641,1.641-1.641S147.319,68.747,147.319,69.655z"/>
	<path fill="#FFFFFF" d="M153.882,69.655c0,0.904-0.734,1.639-1.641,1.639c-0.905,0-1.641-0.734-1.641-1.639
		c0-0.908,0.735-1.641,1.641-1.641C153.147,68.015,153.882,68.747,153.882,69.655z"/>
	<path fill="#FFFFFF" d="M160.442,69.655c0,0.904-0.734,1.639-1.641,1.639c-0.905,0-1.641-0.734-1.641-1.639
		c0-0.908,0.735-1.641,1.641-1.641C159.708,68.015,160.442,68.747,160.442,69.655z"/>
	<path fill="#FFFFFF" d="M167.003,69.655c0,0.904-0.734,1.639-1.641,1.639c-0.905,0-1.639-0.734-1.639-1.639
		c0-0.908,0.733-1.641,1.639-1.641C166.269,68.015,167.003,68.747,167.003,69.655z"/>
	<path fill="#FFFFFF" d="M173.564,69.655c0,0.904-0.735,1.639-1.641,1.639c-0.906,0-1.64-0.734-1.64-1.639
		c0-0.908,0.733-1.641,1.64-1.641C172.829,68.015,173.564,68.747,173.564,69.655z"/>
	<path fill="#FFFFFF" d="M180.126,69.655c0,0.904-0.736,1.639-1.642,1.639c-0.904,0-1.64-0.734-1.64-1.639
		c0-0.908,0.735-1.641,1.64-1.641C179.39,68.015,180.126,68.747,180.126,69.655z"/>
	<path fill="#FFFFFF" d="M186.687,69.655c0,0.904-0.735,1.639-1.64,1.639c-0.906,0-1.641-0.734-1.641-1.639
		c0-0.908,0.734-1.641,1.641-1.641C185.951,68.015,186.687,68.747,186.687,69.655z"/>
	<path fill="#FFFFFF" d="M193.248,69.655c0,0.904-0.735,1.639-1.641,1.639c-0.906,0-1.641-0.734-1.641-1.639
		c0-0.908,0.734-1.641,1.641-1.641C192.513,68.015,193.248,68.747,193.248,69.655z"/>
	<path fill="#FFFFFF" d="M199.809,69.655c0,0.904-0.735,1.639-1.641,1.639c-0.906,0-1.641-0.734-1.641-1.639
		c0-0.908,0.734-1.641,1.641-1.641C199.073,68.015,199.809,68.747,199.809,69.655z"/>
	<path fill="#FFFFFF" d="M206.369,69.655c0,0.904-0.733,1.639-1.641,1.639c-0.906,0-1.641-0.734-1.641-1.639
		c0-0.908,0.734-1.641,1.641-1.641C205.636,68.015,206.369,68.747,206.369,69.655z"/>
	<path fill="#FFFFFF" d="M212.93,69.655c0,0.904-0.733,1.639-1.641,1.639c-0.906,0-1.639-0.734-1.639-1.639
		c0-0.908,0.732-1.641,1.639-1.641C212.196,68.015,212.93,68.747,212.93,69.655z"/>
	<circle fill="#FFFFFF" cx="73.51" cy="76.216" r="1.641"/>
	<circle fill="#FFFFFF" cx="80.071" cy="76.216" r="1.64"/>
	<circle fill="#FFFFFF" cx="86.632" cy="76.216" r="1.641"/>
	<circle fill="#FFFFFF" cx="93.193" cy="76.216" r="1.64"/>
	<circle fill="#FFFFFF" cx="99.754" cy="76.216" r="1.64"/>
	<circle fill="#FFFFFF" cx="106.314" cy="76.216" r="1.64"/>
	<circle fill="#FFFFFF" cx="112.876" cy="76.216" r="1.641"/>
	<circle fill="#FFFFFF" cx="119.437" cy="76.216" r="1.641"/>
	<circle fill="#FFFFFF" cx="125.997" cy="76.216" r="1.641"/>
	<circle fill="#FFFFFF" cx="132.559" cy="76.216" r="1.64"/>
	<circle fill="#FFFFFF" cx="139.119" cy="76.216" r="1.64"/>
	<circle fill="#FFFFFF" cx="145.68" cy="76.216" r="1.64"/>
	<circle fill="#FFFFFF" cx="152.241" cy="76.216" r="1.641"/>
	<circle fill="#FFFFFF" cx="158.802" cy="76.216" r="1.641"/>
	<circle fill="#FFFFFF" cx="165.363" cy="76.216" r="1.64"/>
	<circle fill="#FFFFFF" cx="171.924" cy="76.216" r="1.64"/>
	<circle fill="#FFFFFF" cx="178.485" cy="76.216" r="1.641"/>
	<circle fill="#FFFFFF" cx="185.046" cy="76.216" r="1.64"/>
	<circle fill="#FFFFFF" cx="191.607" cy="76.216" r="1.641"/>
	<circle fill="#FFFFFF" cx="198.168" cy="76.216" r="1.641"/>
	<circle fill="#FFFFFF" cx="204.729" cy="76.216" r="1.641"/>
	<circle fill="#FFFFFF" cx="211.29" cy="76.216" r="1.64"/>
	<circle fill="#FFFFFF" cx="217.852" cy="76.216" r="1.641"/>
	<circle fill="#FFFFFF" cx="66.949" cy="82.776" r="1.64"/>
	<circle fill="#FFFFFF" cx="73.51" cy="82.776" r="1.641"/>
	<circle fill="#FFFFFF" cx="80.071" cy="82.776" r="1.64"/>
	<circle fill="#FFFFFF" cx="86.632" cy="82.776" r="1.641"/>
	<circle fill="#FFFFFF" cx="93.193" cy="82.776" r="1.64"/>
	<circle fill="#FFFFFF" cx="99.754" cy="82.776" r="1.64"/>
	<circle fill="#FFFFFF" cx="106.314" cy="82.776" r="1.64"/>
	<circle fill="#FFFFFF" cx="112.876" cy="82.776" r="1.641"/>
	<circle fill="#FFFFFF" cx="119.437" cy="82.776" r="1.641"/>
	<circle fill="#FFFFFF" cx="125.997" cy="82.776" r="1.641"/>
	<circle fill="#FFFFFF" cx="132.559" cy="82.776" r="1.64"/>
	<circle fill="#FFFFFF" cx="139.119" cy="82.776" r="1.64"/>
	<circle fill="#FFFFFF" cx="145.68" cy="82.776" r="1.64"/>
	<circle fill="#FFFFFF" cx="152.241" cy="82.776" r="1.641"/>
	<circle fill="#FFFFFF" cx="158.802" cy="82.776" r="1.641"/>
	<circle fill="#FFFFFF" cx="165.363" cy="82.776" r="1.64"/>
	<circle fill="#FFFFFF" cx="171.924" cy="82.776" r="1.64"/>
	<circle fill="#FFFFFF" cx="178.485" cy="82.776" r="1.641"/>
	<circle fill="#FFFFFF" cx="185.046" cy="82.776" r="1.64"/>
	<circle fill="#FFFFFF" cx="191.607" cy="82.776" r="1.641"/>
	<circle fill="#FFFFFF" cx="198.168" cy="82.776" r="1.641"/>
	<circle fill="#FFFFFF" cx="204.729" cy="82.776" r="1.641"/>
	<circle fill="#FFFFFF" cx="211.29" cy="82.776" r="1.64"/>
	<circle fill="#FFFFFF" cx="217.852" cy="82.776" r="1.641"/>
	<circle fill="#FFFFFF" cx="224.412" cy="82.776" r="1.641"/>
	<circle fill="#FFFFFF" cx="60.388" cy="89.337" r="1.64"/>
	<circle fill="#FFFFFF" cx="66.949" cy="89.337" r="1.64"/>
	<circle fill="#FFFFFF" cx="73.51" cy="89.337" r="1.641"/>
	<circle fill="#FFFFFF" cx="80.071" cy="89.337" r="1.64"/>
	<circle fill="#FFFFFF" cx="86.632" cy="89.337" r="1.641"/>
	<circle fill="#FFFFFF" cx="93.193" cy="89.337" r="1.64"/>
	<circle fill="#FFFFFF" cx="99.754" cy="89.337" r="1.64"/>
	<circle fill="#FFFFFF" cx="106.314" cy="89.337" r="1.64"/>
	<circle fill="#FFFFFF" cx="112.876" cy="89.337" r="1.641"/>
	<circle fill="#FFFFFF" cx="119.437" cy="89.337" r="1.641"/>
	<circle fill="#FFFFFF" cx="125.997" cy="89.337" r="1.641"/>
	<circle fill="#FFFFFF" cx="132.559" cy="89.337" r="1.64"/>
	<circle fill="#FFFFFF" cx="139.119" cy="89.337" r="1.64"/>
	<circle fill="#FFFFFF" cx="145.68" cy="89.337" r="1.64"/>
	<circle fill="#FFFFFF" cx="152.241" cy="89.337" r="1.641"/>
	<circle fill="#FFFFFF" cx="158.802" cy="89.337" r="1.641"/>
	<circle fill="#FFFFFF" cx="165.363" cy="89.337" r="1.64"/>
	<circle fill="#FFFFFF" cx="171.924" cy="89.337" r="1.64"/>
	<circle fill="#FFFFFF" cx="178.485" cy="89.337" r="1.641"/>
	<circle fill="#FFFFFF" cx="185.046" cy="89.337" r="1.64"/>
	<circle fill="#FFFFFF" cx="191.607" cy="89.337" r="1.641"/>
	<circle fill="#FFFFFF" cx="198.168" cy="89.337" r="1.641"/>
	<circle fill="#FFFFFF" cx="204.729" cy="89.337" r="1.641"/>
	<circle fill="#FFFFFF" cx="211.29" cy="89.337" r="1.64"/>
	<circle fill="#FFFFFF" cx="217.852" cy="89.337" r="1.641"/>
	<circle fill="#FFFFFF" cx="224.412" cy="89.337" r="1.641"/>
	<circle fill="#FFFFFF" cx="230.973" cy="89.337" r="1.641"/>
	<circle fill="#FFFFFF" cx="53.827" cy="95.897" r="1.64"/>
	<circle fill="#FFFFFF" cx="60.388" cy="95.897" r="1.64"/>
	<circle fill="#FFFFFF" cx="66.949" cy="95.897" r="1.64"/>
	<circle fill="#FFFFFF" cx="73.51" cy="95.897" r="1.641"/>
	<circle fill="#FFFFFF" cx="80.071" cy="95.897" r="1.64"/>
	<circle fill="#FFFFFF" cx="86.632" cy="95.897" r="1.641"/>
	<circle fill="#FFFFFF" cx="93.193" cy="95.897" r="1.64"/>
	<circle fill="#FFFFFF" cx="99.754" cy="95.897" r="1.64"/>
	<circle fill="#FFFFFF" cx="106.314" cy="95.897" r="1.64"/>
	<circle fill="#FFFFFF" cx="112.876" cy="95.897" r="1.641"/>
	<circle fill="#FFFFFF" cx="119.437" cy="95.897" r="1.641"/>
	<circle fill="#FFFFFF" cx="125.997" cy="95.897" r="1.641"/>
	<circle fill="#FFFFFF" cx="132.559" cy="95.897" r="1.64"/>
	<circle fill="#FFFFFF" cx="139.119" cy="95.897" r="1.64"/>
	<circle fill="#FFFFFF" cx="145.68" cy="95.897" r="1.64"/>
	<circle fill="#FFFFFF" cx="152.241" cy="95.897" r="1.641"/>
	<circle fill="#FFFFFF" cx="158.802" cy="95.897" r="1.641"/>
	<circle fill="#FFFFFF" cx="165.363" cy="95.897" r="1.64"/>
	<circle fill="#FFFFFF" cx="171.924" cy="95.897" r="1.64"/>
	<circle fill="#FFFFFF" cx="178.485" cy="95.897" r="1.641"/>
	<circle fill="#FFFFFF" cx="185.046" cy="95.897" r="1.64"/>
	<circle fill="#FFFFFF" cx="191.607" cy="95.897" r="1.641"/>
	<circle fill="#FFFFFF" cx="198.168" cy="95.897" r="1.641"/>
	<circle fill="#FFFFFF" cx="204.729" cy="95.897" r="1.641"/>
	<circle fill="#FFFFFF" cx="211.29" cy="95.897" r="1.64"/>
	<circle fill="#FFFFFF" cx="217.852" cy="95.897" r="1.641"/>
	<circle fill="#FFFFFF" cx="224.412" cy="95.897" r="1.641"/>
	<circle fill="#FFFFFF" cx="230.973" cy="95.897" r="1.641"/>
	<circle fill="#FFFFFF" cx="237.533" cy="95.897" r="1.641"/>
	<circle fill="#FFFFFF" cx="152.241" cy="43.411" r="1.641"/>
</g>
</svg>
